<svg xmlns="http://www.w3.org/2000/svg" version="1.1" xmlns:xlink="http://www.w3.org/1999/xlink" xmlns:svgjs="http://svgjs.dev/svgjs" width="1440" height="560" preserveAspectRatio="none" viewBox="0 0 1440 560"><g mask="url(&quot;#SvgjsMask1002&quot;)" fill="none"><path d="M-105.12 369.51L-105.12 369.51" stroke="#132e65" stroke-width="1.5"></path><path d="M-105.12 369.51L50.51 367.54" stroke="#132e65" stroke-width="1.5"></path><path d="M-105.12 369.51L-66 551.86" stroke="#132e65" stroke-width="1.5"></path><path d="M-105.12 369.51L75.76 497.65" stroke="#132e65" stroke-width="1.5"></path><path d="M-105.12 369.51L-106.53 680.67" stroke="#132e65" stroke-width="1.5"></path><path d="M-66 551.86L-66 551.86" stroke="#132e65" stroke-width="1.5"></path><path d="M-66 551.86L-106.53 680.67" stroke="#132e65" stroke-width="1.5"></path><path d="M-66 551.86L75.76 497.65" stroke="#132e65" stroke-width="1.5"></path><path d="M-106.53 680.67L-106.53 680.67" stroke="#132e65" stroke-width="1.5"></path><path d="M50.51 367.54L50.51 367.54" stroke="#132e65" stroke-width="1.5"></path><path d="M50.51 367.54L75.76 497.65" stroke="#132e65" stroke-width="1.5"></path><path d="M50.51 367.54L223.43 367.87" stroke="#132e65" stroke-width="1.5"></path><path d="M75.76 497.65L75.76 497.65" stroke="#132e65" stroke-width="1.5"></path><path d="M75.76 497.65L202.27 529.78" stroke="#132e65" stroke-width="1.5"></path><path d="M108.33 652.44L108.33 652.44" stroke="#132e65" stroke-width="1.5"></path><path d="M108.33 652.44L228.67 674.65" stroke="#132e65" stroke-width="1.5"></path><path d="M108.33 652.44L202.27 529.78" stroke="#132e65" stroke-width="1.5"></path><path d="M108.33 652.44L75.76 497.65" stroke="#132e65" stroke-width="1.5"></path><path d="M108.33 652.44L-66 551.86" stroke="#132e65" stroke-width="1.5"></path><path d="M108.33 652.44L-106.53 680.67" stroke="#132e65" stroke-width="1.5"></path><path d="M223.43 367.87L223.43 367.87" stroke="#132e65" stroke-width="1.5"></path><path d="M223.43 367.87L202.27 529.78" stroke="#132e65" stroke-width="1.5"></path><path d="M202.27 529.78L202.27 529.78" stroke="#132e65" stroke-width="1.5"></path><path d="M202.27 529.78L228.67 674.65" stroke="#132e65" stroke-width="1.5"></path><path d="M228.67 674.65L228.67 674.65" stroke="#132e65" stroke-width="1.5"></path><path d="M228.67 674.65L361.81 669.01" stroke="#132e65" stroke-width="1.5"></path><path d="M228.67 674.65L368.6 506.05" stroke="#132e65" stroke-width="1.5"></path><path d="M228.67 674.65L75.76 497.65" stroke="#132e65" stroke-width="1.5"></path><path d="M368.6 506.05L368.6 506.05" stroke="#132e65" stroke-width="1.5"></path><path d="M368.6 506.05L525.25 515.05" stroke="#132e65" stroke-width="1.5"></path><path d="M368.6 506.05L361.81 669.01" stroke="#132e65" stroke-width="1.5"></path><path d="M368.6 506.05L202.27 529.78" stroke="#132e65" stroke-width="1.5"></path><path d="M368.6 506.05L498.35 642.48" stroke="#132e65" stroke-width="1.5"></path><path d="M368.6 506.05L223.43 367.87" stroke="#132e65" stroke-width="1.5"></path><path d="M361.81 669.01L361.81 669.01" stroke="#132e65" stroke-width="1.5"></path><path d="M361.81 669.01L498.35 642.48" stroke="#132e65" stroke-width="1.5"></path><path d="M361.81 669.01L202.27 529.78" stroke="#132e65" stroke-width="1.5"></path><path d="M361.81 669.01L525.25 515.05" stroke="#132e65" stroke-width="1.5"></path><path d="M556.92 361.61L556.92 361.61" stroke="#132e65" stroke-width="1.5"></path><path d="M556.92 361.61L650.2 345.44" stroke="#132e65" stroke-width="1.5"></path><path d="M556.92 361.61L525.25 515.05" stroke="#132e65" stroke-width="1.5"></path><path d="M556.92 361.61L698.87 229.91" stroke="#132e65" stroke-width="1.5"></path><path d="M556.92 361.61L703.8 545.24" stroke="#132e65" stroke-width="1.5"></path><path d="M556.92 361.61L368.6 506.05" stroke="#132e65" stroke-width="1.5"></path><path d="M525.25 515.05L525.25 515.05" stroke="#132e65" stroke-width="1.5"></path><path d="M525.25 515.05L498.35 642.48" stroke="#132e65" stroke-width="1.5"></path><path d="M525.25 515.05L703.8 545.24" stroke="#132e65" stroke-width="1.5"></path><path d="M525.25 515.05L650.2 345.44" stroke="#132e65" stroke-width="1.5"></path><path d="M525.25 515.05L667.41 675.83" stroke="#132e65" stroke-width="1.5"></path><path d="M498.35 642.48L498.35 642.48" stroke="#132e65" stroke-width="1.5"></path><path d="M498.35 642.48L667.41 675.83" stroke="#132e65" stroke-width="1.5"></path><path d="M698.87 229.91L698.87 229.91" stroke="#132e65" stroke-width="1.5"></path><path d="M698.87 229.91L650.2 345.44" stroke="#132e65" stroke-width="1.5"></path><path d="M698.87 229.91L837.15 259.8" stroke="#132e65" stroke-width="1.5"></path><path d="M698.87 229.91L854.24 356.05" stroke="#132e65" stroke-width="1.5"></path><path d="M650.2 345.44L650.2 345.44" stroke="#132e65" stroke-width="1.5"></path><path d="M650.2 345.44L854.24 356.05" stroke="#132e65" stroke-width="1.5"></path><path d="M650.2 345.44L837.15 259.8" stroke="#132e65" stroke-width="1.5"></path><path d="M650.2 345.44L703.8 545.24" stroke="#132e65" stroke-width="1.5"></path><path d="M703.8 545.24L703.8 545.24" stroke="#132e65" stroke-width="1.5"></path><path d="M703.8 545.24L824.22 497.92" stroke="#132e65" stroke-width="1.5"></path><path d="M703.8 545.24L667.41 675.83" stroke="#132e65" stroke-width="1.5"></path><path d="M703.8 545.24L821.3 709.23" stroke="#132e65" stroke-width="1.5"></path><path d="M703.8 545.24L498.35 642.48" stroke="#132e65" stroke-width="1.5"></path><path d="M667.41 675.83L667.41 675.83" stroke="#132e65" stroke-width="1.5"></path><path d="M667.41 675.83L821.3 709.23" stroke="#132e65" stroke-width="1.5"></path><path d="M854.48 92.58L854.48 92.58" stroke="#132e65" stroke-width="1.5"></path><path d="M854.48 92.58L965.14 88.3" stroke="#132e65" stroke-width="1.5"></path><path d="M854.48 92.58L941.99 223.95" stroke="#132e65" stroke-width="1.5"></path><path d="M854.48 92.58L837.15 259.8" stroke="#132e65" stroke-width="1.5"></path><path d="M837.15 259.8L837.15 259.8" stroke="#132e65" stroke-width="1.5"></path><path d="M837.15 259.8L854.24 356.05" stroke="#132e65" stroke-width="1.5"></path><path d="M837.15 259.8L941.99 223.95" stroke="#132e65" stroke-width="1.5"></path><path d="M837.15 259.8L980.78 401.68" stroke="#132e65" stroke-width="1.5"></path><path d="M854.24 356.05L854.24 356.05" stroke="#132e65" stroke-width="1.5"></path><path d="M854.24 356.05L980.78 401.68" stroke="#132e65" stroke-width="1.5"></path><path d="M854.24 356.05L824.22 497.92" stroke="#132e65" stroke-width="1.5"></path><path d="M824.22 497.92L824.22 497.92" stroke="#132e65" stroke-width="1.5"></path><path d="M824.22 497.92L1005.28 507.21" stroke="#132e65" stroke-width="1.5"></path><path d="M824.22 497.92L980.78 401.68" stroke="#132e65" stroke-width="1.5"></path><path d="M821.3 709.23L821.3 709.23" stroke="#132e65" stroke-width="1.5"></path><path d="M821.3 709.23L970.07 677.25" stroke="#132e65" stroke-width="1.5"></path><path d="M965.14 88.3L965.14 88.3" stroke="#132e65" stroke-width="1.5"></path><path d="M965.14 88.3L941.99 223.95" stroke="#132e65" stroke-width="1.5"></path><path d="M965.14 88.3L1123.67 53.99" stroke="#132e65" stroke-width="1.5"></path><path d="M965.14 88.3L1099.03 228.16" stroke="#132e65" stroke-width="1.5"></path><path d="M941.99 223.95L941.99 223.95" stroke="#132e65" stroke-width="1.5"></path><path d="M980.78 401.68L980.78 401.68" stroke="#132e65" stroke-width="1.5"></path><path d="M980.78 401.68L1005.28 507.21" stroke="#132e65" stroke-width="1.5"></path><path d="M980.78 401.68L1109.59 337.51" stroke="#132e65" stroke-width="1.5"></path><path d="M980.78 401.68L941.99 223.95" stroke="#132e65" stroke-width="1.5"></path><path d="M1005.28 507.21L1005.28 507.21" stroke="#132e65" stroke-width="1.5"></path><path d="M1005.28 507.21L1120.18 546.95" stroke="#132e65" stroke-width="1.5"></path><path d="M1005.28 507.21L970.07 677.25" stroke="#132e65" stroke-width="1.5"></path><path d="M1005.28 507.21L1114.86 668.07" stroke="#132e65" stroke-width="1.5"></path><path d="M970.07 677.25L970.07 677.25" stroke="#132e65" stroke-width="1.5"></path><path d="M970.07 677.25L1114.86 668.07" stroke="#132e65" stroke-width="1.5"></path><path d="M1159.38 -62.61L1159.38 -62.61" stroke="#132e65" stroke-width="1.5"></path><path d="M1159.38 -62.61L1123.67 53.99" stroke="#132e65" stroke-width="1.5"></path><path d="M1159.38 -62.61L1303.68 -95.79" stroke="#132e65" stroke-width="1.5"></path><path d="M1159.38 -62.61L1260.52 80.55" stroke="#132e65" stroke-width="1.5"></path><path d="M1159.38 -62.61L965.14 88.3" stroke="#132e65" stroke-width="1.5"></path><path d="M1159.38 -62.61L1437.05 -97.03" stroke="#132e65" stroke-width="1.5"></path><path d="M1159.38 -62.61L1099.03 228.16" stroke="#132e65" stroke-width="1.5"></path><path d="M1123.67 53.99L1123.67 53.99" stroke="#132e65" stroke-width="1.5"></path><path d="M1123.67 53.99L1260.52 80.55" stroke="#132e65" stroke-width="1.5"></path><path d="M1123.67 53.99L1099.03 228.16" stroke="#132e65" stroke-width="1.5"></path><path d="M1099.03 228.16L1099.03 228.16" stroke="#132e65" stroke-width="1.5"></path><path d="M1099.03 228.16L1109.59 337.51" stroke="#132e65" stroke-width="1.5"></path><path d="M1099.03 228.16L1246.28 256.72" stroke="#132e65" stroke-width="1.5"></path><path d="M1099.03 228.16L941.99 223.95" stroke="#132e65" stroke-width="1.5"></path><path d="M1109.59 337.51L1109.59 337.51" stroke="#132e65" stroke-width="1.5"></path><path d="M1109.59 337.51L1246.28 256.72" stroke="#132e65" stroke-width="1.5"></path><path d="M1109.59 337.51L1005.28 507.21" stroke="#132e65" stroke-width="1.5"></path><path d="M1120.18 546.95L1120.18 546.95" stroke="#132e65" stroke-width="1.5"></path><path d="M1120.18 546.95L1114.86 668.07" stroke="#132e65" stroke-width="1.5"></path><path d="M1120.18 546.95L1253.66 644.25" stroke="#132e65" stroke-width="1.5"></path><path d="M1120.18 546.95L1310.41 502.81" stroke="#132e65" stroke-width="1.5"></path><path d="M1114.86 668.07L1114.86 668.07" stroke="#132e65" stroke-width="1.5"></path><path d="M1114.86 668.07L1253.66 644.25" stroke="#132e65" stroke-width="1.5"></path><path d="M1114.86 668.07L1310.41 502.81" stroke="#132e65" stroke-width="1.5"></path><path d="M1114.86 668.07L1393.09 691.45" stroke="#132e65" stroke-width="1.5"></path><path d="M1303.68 -95.79L1303.68 -95.79" stroke="#132e65" stroke-width="1.5"></path><path d="M1303.68 -95.79L1437.05 -97.03" stroke="#132e65" stroke-width="1.5"></path><path d="M1303.68 -95.79L1260.52 80.55" stroke="#132e65" stroke-width="1.5"></path><path d="M1303.68 -95.79L1123.67 53.99" stroke="#132e65" stroke-width="1.5"></path><path d="M1303.68 -95.79L1569.11 -37.8" stroke="#132e65" stroke-width="1.5"></path><path d="M1260.52 80.55L1260.52 80.55" stroke="#132e65" stroke-width="1.5"></path><path d="M1260.52 80.55L1246.28 256.72" stroke="#132e65" stroke-width="1.5"></path><path d="M1246.28 256.72L1246.28 256.72" stroke="#132e65" stroke-width="1.5"></path><path d="M1246.28 256.72L1305.96 381.52" stroke="#132e65" stroke-width="1.5"></path><path d="M1305.96 381.52L1305.96 381.52" stroke="#132e65" stroke-width="1.5"></path><path d="M1305.96 381.52L1407.87 394.23" stroke="#132e65" stroke-width="1.5"></path><path d="M1305.96 381.52L1310.41 502.81" stroke="#132e65" stroke-width="1.5"></path><path d="M1310.41 502.81L1310.41 502.81" stroke="#132e65" stroke-width="1.5"></path><path d="M1310.41 502.81L1391.33 503.3" stroke="#132e65" stroke-width="1.5"></path><path d="M1310.41 502.81L1407.87 394.23" stroke="#132e65" stroke-width="1.5"></path><path d="M1310.41 502.81L1253.66 644.25" stroke="#132e65" stroke-width="1.5"></path><path d="M1253.66 644.25L1253.66 644.25" stroke="#132e65" stroke-width="1.5"></path><path d="M1253.66 644.25L1393.09 691.45" stroke="#132e65" stroke-width="1.5"></path><path d="M1437.05 -97.03L1437.05 -97.03" stroke="#132e65" stroke-width="1.5"></path><path d="M1452.61 207.59L1452.61 207.59" stroke="#132e65" stroke-width="1.5"></path><path d="M1452.61 207.59L1557.44 255.5" stroke="#132e65" stroke-width="1.5"></path><path d="M1452.61 207.59L1548.05 97.31" stroke="#132e65" stroke-width="1.5"></path><path d="M1452.61 207.59L1555.73 352.34" stroke="#132e65" stroke-width="1.5"></path><path d="M1452.61 207.59L1407.87 394.23" stroke="#132e65" stroke-width="1.5"></path><path d="M1452.61 207.59L1246.28 256.72" stroke="#132e65" stroke-width="1.5"></path><path d="M1452.61 207.59L1305.96 381.52" stroke="#132e65" stroke-width="1.5"></path><path d="M1407.87 394.23L1407.87 394.23" stroke="#132e65" stroke-width="1.5"></path><path d="M1407.87 394.23L1391.33 503.3" stroke="#132e65" stroke-width="1.5"></path><path d="M1391.33 503.3L1391.33 503.3" stroke="#132e65" stroke-width="1.5"></path><path d="M1391.33 503.3L1305.96 381.52" stroke="#132e65" stroke-width="1.5"></path><path d="M1391.33 503.3L1393.09 691.45" stroke="#132e65" stroke-width="1.5"></path><path d="M1391.33 503.3L1253.66 644.25" stroke="#132e65" stroke-width="1.5"></path><path d="M1393.09 691.45L1393.09 691.45" stroke="#132e65" stroke-width="1.5"></path><path d="M1393.09 691.45L1559.6 663.74" stroke="#132e65" stroke-width="1.5"></path><path d="M1569.11 -37.8L1569.11 -37.8" stroke="#132e65" stroke-width="1.5"></path><path d="M1569.11 -37.8L1548.05 97.31" stroke="#132e65" stroke-width="1.5"></path><path d="M1569.11 -37.8L1437.05 -97.03" stroke="#132e65" stroke-width="1.5"></path><path d="M1569.11 -37.8L1452.61 207.59" stroke="#132e65" stroke-width="1.5"></path><path d="M1548.05 97.31L1548.05 97.31" stroke="#132e65" stroke-width="1.5"></path><path d="M1548.05 97.31L1557.44 255.5" stroke="#132e65" stroke-width="1.5"></path><path d="M1548.05 97.31L1437.05 -97.03" stroke="#132e65" stroke-width="1.5"></path><path d="M1548.05 97.31L1555.73 352.34" stroke="#132e65" stroke-width="1.5"></path><path d="M1557.44 255.5L1557.44 255.5" stroke="#132e65" stroke-width="1.5"></path><path d="M1557.44 255.5L1555.73 352.34" stroke="#132e65" stroke-width="1.5"></path><path d="M1555.73 352.34L1555.73 352.34" stroke="#132e65" stroke-width="1.5"></path><path d="M1586.83 529.81L1586.83 529.81" stroke="#132e65" stroke-width="1.5"></path><path d="M1586.83 529.81L1559.6 663.74" stroke="#132e65" stroke-width="1.5"></path><path d="M1586.83 529.81L1555.73 352.34" stroke="#132e65" stroke-width="1.5"></path><path d="M1586.83 529.81L1391.33 503.3" stroke="#132e65" stroke-width="1.5"></path><path d="M1586.83 529.81L1407.87 394.23" stroke="#132e65" stroke-width="1.5"></path><path d="M1586.83 529.81L1393.09 691.45" stroke="#132e65" stroke-width="1.5"></path><path d="M1559.6 663.74L1559.6 663.74" stroke="#132e65" stroke-width="1.5"></path><path d="M1559.6 663.74L1391.33 503.3" stroke="#132e65" stroke-width="1.5"></path><path d="M1559.6 663.74L1310.41 502.81" stroke="#132e65" stroke-width="1.5"></path><path d="M1559.6 663.74L1253.66 644.25" stroke="#132e65" stroke-width="1.5"></path><path d="M1559.6 663.74L1407.87 394.23" stroke="#132e65" stroke-width="1.5"></path><circle r="5" cx="-105.12" cy="369.51" fill="#132e65"></circle><circle r="5" cx="-66" cy="551.86" fill="#132e65"></circle><circle r="5" cx="-106.53" cy="680.67" fill="#132e65"></circle><circle r="5" cx="50.51" cy="367.54" fill="#132e65"></circle><circle r="5" cx="75.76" cy="497.65" fill="#132e65"></circle><circle r="5" cx="108.33" cy="652.44" fill="#132e65"></circle><circle r="5" cx="223.43" cy="367.87" fill="#132e65"></circle><circle r="5" cx="202.27" cy="529.78" fill="#132e65"></circle><circle r="5" cx="228.67" cy="674.65" fill="#132e65"></circle><circle r="5" cx="368.6" cy="506.05" fill="#132e65"></circle><circle r="5" cx="361.81" cy="669.01" fill="#132e65"></circle><circle r="5" cx="556.92" cy="361.61" fill="#132e65"></circle><circle r="5" cx="525.25" cy="515.05" fill="#132e65"></circle><circle r="5" cx="498.35" cy="642.48" fill="#132e65"></circle><circle r="5" cx="698.87" cy="229.91" fill="#132e65"></circle><circle r="5" cx="650.2" cy="345.44" fill="#132e65"></circle><circle r="5" cx="703.8" cy="545.24" fill="#132e65"></circle><circle r="5" cx="667.41" cy="675.83" fill="#132e65"></circle><circle r="5" cx="854.48" cy="92.58" fill="#132e65"></circle><circle r="5" cx="837.15" cy="259.8" fill="#132e65"></circle><circle r="5" cx="854.24" cy="356.05" fill="#132e65"></circle><circle r="5" cx="824.22" cy="497.92" fill="#132e65"></circle><circle r="5" cx="821.3" cy="709.23" fill="#132e65"></circle><circle r="5" cx="965.14" cy="88.3" fill="#132e65"></circle><circle r="5" cx="941.99" cy="223.95" fill="#132e65"></circle><circle r="5" cx="980.78" cy="401.68" fill="#132e65"></circle><circle r="5" cx="1005.28" cy="507.21" fill="#132e65"></circle><circle r="5" cx="970.07" cy="677.25" fill="#132e65"></circle><circle r="5" cx="1159.38" cy="-62.61" fill="#132e65"></circle><circle r="5" cx="1123.67" cy="53.99" fill="#132e65"></circle><circle r="5" cx="1099.03" cy="228.16" fill="#132e65"></circle><circle r="5" cx="1109.59" cy="337.51" fill="#132e65"></circle><circle r="5" cx="1120.18" cy="546.95" fill="#132e65"></circle><circle r="5" cx="1114.86" cy="668.07" fill="#132e65"></circle><circle r="5" cx="1303.68" cy="-95.79" fill="#132e65"></circle><circle r="5" cx="1260.52" cy="80.55" fill="#132e65"></circle><circle r="5" cx="1246.28" cy="256.72" fill="#132e65"></circle><circle r="5" cx="1305.96" cy="381.52" fill="#132e65"></circle><circle r="5" cx="1310.41" cy="502.81" fill="#132e65"></circle><circle r="5" cx="1253.66" cy="644.25" fill="#132e65"></circle><circle r="5" cx="1437.05" cy="-97.03" fill="#132e65"></circle><circle r="5" cx="1452.61" cy="207.59" fill="#132e65"></circle><circle r="5" cx="1407.87" cy="394.23" fill="#132e65"></circle><circle r="5" cx="1391.33" cy="503.3" fill="#132e65"></circle><circle r="5" cx="1393.09" cy="691.45" fill="#132e65"></circle><circle r="5" cx="1569.11" cy="-37.8" fill="#132e65"></circle><circle r="5" cx="1548.05" cy="97.31" fill="#132e65"></circle><circle r="5" cx="1557.44" cy="255.5" fill="#132e65"></circle><circle r="5" cx="1555.73" cy="352.34" fill="#132e65"></circle><circle r="5" cx="1586.83" cy="529.81" fill="#132e65"></circle><circle r="5" cx="1559.6" cy="663.74" fill="#132e65"></circle><path d="M76.03 508.11L76.03 508.11" stroke="hsl(228.5, 77.2%, 51.5%)" stroke-width="1.5"></path><path d="M76.03 508.11L187.84 544.66" stroke="hsl(228.5, 77.2%, 51.5%)" stroke-width="1.5"></path><path d="M76.03 508.11L-75.8 491.49" stroke="hsl(228.5, 77.2%, 51.5%)" stroke-width="1.5"></path><path d="M187.84 544.66L187.84 544.66" stroke="hsl(228.5, 77.2%, 51.5%)" stroke-width="1.5"></path><path d="M187.84 544.66L228.75 698.66" stroke="hsl(228.5, 77.2%, 51.5%)" stroke-width="1.5"></path><path d="M537.97 511.13L537.97 511.13" stroke="hsl(228.5, 77.2%, 51.5%)" stroke-width="1.5"></path><path d="M537.97 511.13L697.44 542.09" stroke="hsl(228.5, 77.2%, 51.5%)" stroke-width="1.5"></path><path d="M656.68 392.68L656.68 392.68" stroke="hsl(228.5, 77.2%, 51.5%)" stroke-width="1.5"></path><path d="M656.68 392.68L697.44 542.09" stroke="hsl(228.5, 77.2%, 51.5%)" stroke-width="1.5"></path><path d="M656.68 392.68L537.97 511.13" stroke="hsl(228.5, 77.2%, 51.5%)" stroke-width="1.5"></path><path d="M697.44 542.09L697.44 542.09" stroke="hsl(228.5, 77.2%, 51.5%)" stroke-width="1.5"></path><path d="M697.44 542.09L793.37 539.6" stroke="hsl(228.5, 77.2%, 51.5%)" stroke-width="1.5"></path><path d="M697.44 542.09L638.09 675.23" stroke="hsl(228.5, 77.2%, 51.5%)" stroke-width="1.5"></path><path d="M638.09 675.23L638.09 675.23" stroke="hsl(228.5, 77.2%, 51.5%)" stroke-width="1.5"></path><path d="M638.09 675.23L499.77 669.96" stroke="hsl(228.5, 77.2%, 51.5%)" stroke-width="1.5"></path><path d="M638.09 675.23L791.73 694.11" stroke="hsl(228.5, 77.2%, 51.5%)" stroke-width="1.5"></path><path d="M638.09 675.23L537.97 511.13" stroke="hsl(228.5, 77.2%, 51.5%)" stroke-width="1.5"></path><path d="M638.09 675.23L793.37 539.6" stroke="hsl(228.5, 77.2%, 51.5%)" stroke-width="1.5"></path><path d="M793.37 539.6L793.37 539.6" stroke="hsl(228.5, 77.2%, 51.5%)" stroke-width="1.5"></path><path d="M793.37 539.6L835.43 401.98" stroke="hsl(228.5, 77.2%, 51.5%)" stroke-width="1.5"></path><path d="M1262.44 71.93L1262.44 71.93" stroke="hsl(228.5, 77.2%, 51.5%)" stroke-width="1.5"></path><path d="M1262.44 71.93L1148.54 87.48" stroke="hsl(228.5, 77.2%, 51.5%)" stroke-width="1.5"></path><path d="M1262.44 71.93L1292.44 -49.31" stroke="hsl(228.5, 77.2%, 51.5%)" stroke-width="1.5"></path><path d="M1290.01 512.09L1290.01 512.09" stroke="hsl(228.5, 77.2%, 51.5%)" stroke-width="1.5"></path><path d="M1290.01 512.09L1298.5 410.2" stroke="hsl(228.5, 77.2%, 51.5%)" stroke-width="1.5"></path><path d="M1290.01 512.09L1420.17 528.06" stroke="hsl(228.5, 77.2%, 51.5%)" stroke-width="1.5"></path><path d="M1290.01 512.09L1279.56 648.46" stroke="hsl(228.5, 77.2%, 51.5%)" stroke-width="1.5"></path><path d="M1290.01 512.09L1114.59 561.01" stroke="hsl(228.5, 77.2%, 51.5%)" stroke-width="1.5"></path><path d="M1290.01 512.09L1392.43 343.96" stroke="hsl(228.5, 77.2%, 51.5%)" stroke-width="1.5"></path><path d="M-75.8 491.49L-75.8 491.49" stroke="hsl(228.5, 77.2%, 51.5%)" stroke-width="1.5"></path><path d="M-75.8 491.49L-108.07 659.31" stroke="hsl(228.5, 77.2%, 51.5%)" stroke-width="1.5"></path><path d="M-75.8 491.49L82.6 674.55" stroke="hsl(228.5, 77.2%, 51.5%)" stroke-width="1.5"></path><path d="M-108.07 659.31L-108.07 659.31" stroke="hsl(228.5, 77.2%, 51.5%)" stroke-width="1.5"></path><path d="M-108.07 659.31L82.6 674.55" stroke="hsl(228.5, 77.2%, 51.5%)" stroke-width="1.5"></path><path d="M-108.07 659.31L76.03 508.11" stroke="hsl(228.5, 77.2%, 51.5%)" stroke-width="1.5"></path><path d="M-108.07 659.31L187.84 544.66" stroke="hsl(228.5, 77.2%, 51.5%)" stroke-width="1.5"></path><path d="M-108.07 659.31L228.75 698.66" stroke="hsl(228.5, 77.2%, 51.5%)" stroke-width="1.5"></path><path d="M82.6 674.55L82.6 674.55" stroke="hsl(228.5, 77.2%, 51.5%)" stroke-width="1.5"></path><path d="M82.6 674.55L228.75 698.66" stroke="hsl(228.5, 77.2%, 51.5%)" stroke-width="1.5"></path><path d="M82.6 674.55L76.03 508.11" stroke="hsl(228.5, 77.2%, 51.5%)" stroke-width="1.5"></path><path d="M82.6 674.55L187.84 544.66" stroke="hsl(228.5, 77.2%, 51.5%)" stroke-width="1.5"></path><path d="M228.75 698.66L228.75 698.66" stroke="hsl(228.5, 77.2%, 51.5%)" stroke-width="1.5"></path><path d="M228.75 698.66L393.88 669.52" stroke="hsl(228.5, 77.2%, 51.5%)" stroke-width="1.5"></path><path d="M373.05 535.55L373.05 535.55" stroke="hsl(228.5, 77.2%, 51.5%)" stroke-width="1.5"></path><path d="M373.05 535.55L393.88 669.52" stroke="hsl(228.5, 77.2%, 51.5%)" stroke-width="1.5"></path><path d="M373.05 535.55L537.97 511.13" stroke="hsl(228.5, 77.2%, 51.5%)" stroke-width="1.5"></path><path d="M373.05 535.55L499.77 669.96" stroke="hsl(228.5, 77.2%, 51.5%)" stroke-width="1.5"></path><path d="M373.05 535.55L187.84 544.66" stroke="hsl(228.5, 77.2%, 51.5%)" stroke-width="1.5"></path><path d="M393.88 669.52L393.88 669.52" stroke="hsl(228.5, 77.2%, 51.5%)" stroke-width="1.5"></path><path d="M393.88 669.52L499.77 669.96" stroke="hsl(228.5, 77.2%, 51.5%)" stroke-width="1.5"></path><path d="M393.88 669.52L537.97 511.13" stroke="hsl(228.5, 77.2%, 51.5%)" stroke-width="1.5"></path><path d="M499.77 669.96L499.77 669.96" stroke="hsl(228.5, 77.2%, 51.5%)" stroke-width="1.5"></path><path d="M835.43 401.98L835.43 401.98" stroke="hsl(228.5, 77.2%, 51.5%)" stroke-width="1.5"></path><path d="M835.43 401.98L968.03 404.39" stroke="hsl(228.5, 77.2%, 51.5%)" stroke-width="1.5"></path><path d="M835.43 401.98L656.68 392.68" stroke="hsl(228.5, 77.2%, 51.5%)" stroke-width="1.5"></path><path d="M835.43 401.98L697.44 542.09" stroke="hsl(228.5, 77.2%, 51.5%)" stroke-width="1.5"></path><path d="M835.43 401.98L1011.24 513.47" stroke="hsl(228.5, 77.2%, 51.5%)" stroke-width="1.5"></path><path d="M835.43 401.98L791.73 694.11" stroke="hsl(228.5, 77.2%, 51.5%)" stroke-width="1.5"></path><path d="M791.73 694.11L791.73 694.11" stroke="hsl(228.5, 77.2%, 51.5%)" stroke-width="1.5"></path><path d="M791.73 694.11L793.37 539.6" stroke="hsl(228.5, 77.2%, 51.5%)" stroke-width="1.5"></path><path d="M791.73 694.11L697.44 542.09" stroke="hsl(228.5, 77.2%, 51.5%)" stroke-width="1.5"></path><path d="M791.73 694.11L1004.47 651.41" stroke="hsl(228.5, 77.2%, 51.5%)" stroke-width="1.5"></path><path d="M791.73 694.11L1011.24 513.47" stroke="hsl(228.5, 77.2%, 51.5%)" stroke-width="1.5"></path><path d="M791.73 694.11L499.77 669.96" stroke="hsl(228.5, 77.2%, 51.5%)" stroke-width="1.5"></path><path d="M968.03 404.39L968.03 404.39" stroke="hsl(228.5, 77.2%, 51.5%)" stroke-width="1.5"></path><path d="M968.03 404.39L1011.24 513.47" stroke="hsl(228.5, 77.2%, 51.5%)" stroke-width="1.5"></path><path d="M968.03 404.39L1114.59 561.01" stroke="hsl(228.5, 77.2%, 51.5%)" stroke-width="1.5"></path><path d="M968.03 404.39L793.37 539.6" stroke="hsl(228.5, 77.2%, 51.5%)" stroke-width="1.5"></path><path d="M968.03 404.39L1088.82 206.61" stroke="hsl(228.5, 77.2%, 51.5%)" stroke-width="1.5"></path><path d="M1011.24 513.47L1011.24 513.47" stroke="hsl(228.5, 77.2%, 51.5%)" stroke-width="1.5"></path><path d="M1011.24 513.47L1114.59 561.01" stroke="hsl(228.5, 77.2%, 51.5%)" stroke-width="1.5"></path><path d="M1011.24 513.47L1004.47 651.41" stroke="hsl(228.5, 77.2%, 51.5%)" stroke-width="1.5"></path><path d="M1011.24 513.47L793.37 539.6" stroke="hsl(228.5, 77.2%, 51.5%)" stroke-width="1.5"></path><path d="M1004.47 651.41L1004.47 651.41" stroke="hsl(228.5, 77.2%, 51.5%)" stroke-width="1.5"></path><path d="M1004.47 651.41L1126.35 703.36" stroke="hsl(228.5, 77.2%, 51.5%)" stroke-width="1.5"></path><path d="M1004.47 651.41L1114.59 561.01" stroke="hsl(228.5, 77.2%, 51.5%)" stroke-width="1.5"></path><path d="M1148.54 87.48L1148.54 87.48" stroke="hsl(228.5, 77.2%, 51.5%)" stroke-width="1.5"></path><path d="M1148.54 87.48L1088.82 206.61" stroke="hsl(228.5, 77.2%, 51.5%)" stroke-width="1.5"></path><path d="M1148.54 87.48L1292.44 -49.31" stroke="hsl(228.5, 77.2%, 51.5%)" stroke-width="1.5"></path><path d="M1148.54 87.48L1279.54 251.16" stroke="hsl(228.5, 77.2%, 51.5%)" stroke-width="1.5"></path><path d="M1148.54 87.48L1446.88 107.35" stroke="hsl(228.5, 77.2%, 51.5%)" stroke-width="1.5"></path><path d="M1088.82 206.61L1088.82 206.61" stroke="hsl(228.5, 77.2%, 51.5%)" stroke-width="1.5"></path><path d="M1088.82 206.61L1279.54 251.16" stroke="hsl(228.5, 77.2%, 51.5%)" stroke-width="1.5"></path><path d="M1088.82 206.61L1262.44 71.93" stroke="hsl(228.5, 77.2%, 51.5%)" stroke-width="1.5"></path><path d="M1114.59 561.01L1114.59 561.01" stroke="hsl(228.5, 77.2%, 51.5%)" stroke-width="1.5"></path><path d="M1114.59 561.01L1126.35 703.36" stroke="hsl(228.5, 77.2%, 51.5%)" stroke-width="1.5"></path><path d="M1114.59 561.01L1279.56 648.46" stroke="hsl(228.5, 77.2%, 51.5%)" stroke-width="1.5"></path><path d="M1126.35 703.36L1126.35 703.36" stroke="hsl(228.5, 77.2%, 51.5%)" stroke-width="1.5"></path><path d="M1292.44 -49.31L1292.44 -49.31" stroke="hsl(228.5, 77.2%, 51.5%)" stroke-width="1.5"></path><path d="M1292.44 -49.31L1429.75 -45.2" stroke="hsl(228.5, 77.2%, 51.5%)" stroke-width="1.5"></path><path d="M1279.54 251.16L1279.54 251.16" stroke="hsl(228.5, 77.2%, 51.5%)" stroke-width="1.5"></path><path d="M1279.54 251.16L1424.63 252.88" stroke="hsl(228.5, 77.2%, 51.5%)" stroke-width="1.5"></path><path d="M1279.54 251.16L1392.43 343.96" stroke="hsl(228.5, 77.2%, 51.5%)" stroke-width="1.5"></path><path d="M1279.54 251.16L1298.5 410.2" stroke="hsl(228.5, 77.2%, 51.5%)" stroke-width="1.5"></path><path d="M1298.5 410.2L1298.5 410.2" stroke="hsl(228.5, 77.2%, 51.5%)" stroke-width="1.5"></path><path d="M1298.5 410.2L1392.43 343.96" stroke="hsl(228.5, 77.2%, 51.5%)" stroke-width="1.5"></path><path d="M1298.5 410.2L1420.17 528.06" stroke="hsl(228.5, 77.2%, 51.5%)" stroke-width="1.5"></path><path d="M1298.5 410.2L1424.63 252.88" stroke="hsl(228.5, 77.2%, 51.5%)" stroke-width="1.5"></path><path d="M1298.5 410.2L1114.59 561.01" stroke="hsl(228.5, 77.2%, 51.5%)" stroke-width="1.5"></path><path d="M1279.56 648.46L1279.56 648.46" stroke="hsl(228.5, 77.2%, 51.5%)" stroke-width="1.5"></path><path d="M1279.56 648.46L1126.35 703.36" stroke="hsl(228.5, 77.2%, 51.5%)" stroke-width="1.5"></path><path d="M1279.56 648.46L1420.17 528.06" stroke="hsl(228.5, 77.2%, 51.5%)" stroke-width="1.5"></path><path d="M1429.75 -45.2L1429.75 -45.2" stroke="hsl(228.5, 77.2%, 51.5%)" stroke-width="1.5"></path><path d="M1429.75 -45.2L1446.88 107.35" stroke="hsl(228.5, 77.2%, 51.5%)" stroke-width="1.5"></path><path d="M1429.75 -45.2L1545.74 72.75" stroke="hsl(228.5, 77.2%, 51.5%)" stroke-width="1.5"></path><path d="M1446.88 107.35L1446.88 107.35" stroke="hsl(228.5, 77.2%, 51.5%)" stroke-width="1.5"></path><path d="M1446.88 107.35L1545.74 72.75" stroke="hsl(228.5, 77.2%, 51.5%)" stroke-width="1.5"></path><path d="M1446.88 107.35L1542 193.69" stroke="hsl(228.5, 77.2%, 51.5%)" stroke-width="1.5"></path><path d="M1446.88 107.35L1424.63 252.88" stroke="hsl(228.5, 77.2%, 51.5%)" stroke-width="1.5"></path><path d="M1446.88 107.35L1262.44 71.93" stroke="hsl(228.5, 77.2%, 51.5%)" stroke-width="1.5"></path><path d="M1446.88 107.35L1292.44 -49.31" stroke="hsl(228.5, 77.2%, 51.5%)" stroke-width="1.5"></path><path d="M1424.63 252.88L1424.63 252.88" stroke="hsl(228.5, 77.2%, 51.5%)" stroke-width="1.5"></path><path d="M1424.63 252.88L1392.43 343.96" stroke="hsl(228.5, 77.2%, 51.5%)" stroke-width="1.5"></path><path d="M1424.63 252.88L1542 193.69" stroke="hsl(228.5, 77.2%, 51.5%)" stroke-width="1.5"></path><path d="M1424.63 252.88L1544.97 354.76" stroke="hsl(228.5, 77.2%, 51.5%)" stroke-width="1.5"></path><path d="M1392.43 343.96L1392.43 343.96" stroke="hsl(228.5, 77.2%, 51.5%)" stroke-width="1.5"></path><path d="M1420.17 528.06L1420.17 528.06" stroke="hsl(228.5, 77.2%, 51.5%)" stroke-width="1.5"></path><path d="M1420.17 528.06L1543.47 556.12" stroke="hsl(228.5, 77.2%, 51.5%)" stroke-width="1.5"></path><path d="M1590.05 -98.98L1590.05 -98.98" stroke="hsl(228.5, 77.2%, 51.5%)" stroke-width="1.5"></path><path d="M1590.05 -98.98L1429.75 -45.2" stroke="hsl(228.5, 77.2%, 51.5%)" stroke-width="1.5"></path><path d="M1590.05 -98.98L1545.74 72.75" stroke="hsl(228.5, 77.2%, 51.5%)" stroke-width="1.5"></path><path d="M1545.74 72.75L1545.74 72.75" stroke="hsl(228.5, 77.2%, 51.5%)" stroke-width="1.5"></path><path d="M1545.74 72.75L1542 193.69" stroke="hsl(228.5, 77.2%, 51.5%)" stroke-width="1.5"></path><path d="M1542 193.69L1542 193.69" stroke="hsl(228.5, 77.2%, 51.5%)" stroke-width="1.5"></path><path d="M1542 193.69L1544.97 354.76" stroke="hsl(228.5, 77.2%, 51.5%)" stroke-width="1.5"></path><path d="M1542 193.69L1392.43 343.96" stroke="hsl(228.5, 77.2%, 51.5%)" stroke-width="1.5"></path><path d="M1544.97 354.76L1544.97 354.76" stroke="hsl(228.5, 77.2%, 51.5%)" stroke-width="1.5"></path><path d="M1544.97 354.76L1392.43 343.96" stroke="hsl(228.5, 77.2%, 51.5%)" stroke-width="1.5"></path><path d="M1544.97 354.76L1543.47 556.12" stroke="hsl(228.5, 77.2%, 51.5%)" stroke-width="1.5"></path><path d="M1544.97 354.76L1420.17 528.06" stroke="hsl(228.5, 77.2%, 51.5%)" stroke-width="1.5"></path><path d="M1544.97 354.76L1298.5 410.2" stroke="hsl(228.5, 77.2%, 51.5%)" stroke-width="1.5"></path><path d="M1543.47 556.12L1543.47 556.12" stroke="hsl(228.5, 77.2%, 51.5%)" stroke-width="1.5"></path><path d="M1543.47 556.12L1560.52 649.81" stroke="hsl(228.5, 77.2%, 51.5%)" stroke-width="1.5"></path><path d="M1560.52 649.81L1560.52 649.81" stroke="hsl(228.5, 77.2%, 51.5%)" stroke-width="1.5"></path><circle r="25" cx="76.03" cy="508.11" fill="url(&quot;#SvgjsRadialGradient1003&quot;)"></circle><circle r="25" cx="187.84" cy="544.66" fill="url(&quot;#SvgjsRadialGradient1003&quot;)"></circle><circle r="25" cx="537.97" cy="511.13" fill="url(&quot;#SvgjsRadialGradient1003&quot;)"></circle><circle r="25" cx="656.68" cy="392.68" fill="url(&quot;#SvgjsRadialGradient1003&quot;)"></circle><circle r="25" cx="697.44" cy="542.09" fill="url(&quot;#SvgjsRadialGradient1003&quot;)"></circle><circle r="25" cx="638.09" cy="675.23" fill="url(&quot;#SvgjsRadialGradient1003&quot;)"></circle><circle r="25" cx="793.37" cy="539.6" fill="url(&quot;#SvgjsRadialGradient1003&quot;)"></circle><circle r="25" cx="1262.44" cy="71.93" fill="url(&quot;#SvgjsRadialGradient1003&quot;)"></circle><circle r="25" cx="1290.01" cy="512.09" fill="url(&quot;#SvgjsRadialGradient1003&quot;)"></circle><circle r="5" cx="-75.8" cy="491.49" fill="#8b9ad9"></circle><circle r="5" cx="-108.07" cy="659.31" fill="#8b9ad9"></circle><circle r="5" cx="82.6" cy="674.55" fill="#8b9ad9"></circle><circle r="5" cx="228.75" cy="698.66" fill="#8b9ad9"></circle><circle r="5" cx="373.05" cy="535.55" fill="#8b9ad9"></circle><circle r="5" cx="393.88" cy="669.52" fill="#8b9ad9"></circle><circle r="5" cx="499.77" cy="669.96" fill="#8b9ad9"></circle><circle r="5" cx="835.43" cy="401.98" fill="#8b9ad9"></circle><circle r="5" cx="791.73" cy="694.11" fill="#8b9ad9"></circle><circle r="5" cx="968.03" cy="404.39" fill="#8b9ad9"></circle><circle r="5" cx="1011.24" cy="513.47" fill="#8b9ad9"></circle><circle r="5" cx="1004.47" cy="651.41" fill="#8b9ad9"></circle><circle r="5" cx="1148.54" cy="87.48" fill="#8b9ad9"></circle><circle r="5" cx="1088.82" cy="206.61" fill="#8b9ad9"></circle><circle r="5" cx="1114.59" cy="561.01" fill="#8b9ad9"></circle><circle r="5" cx="1126.35" cy="703.36" fill="#8b9ad9"></circle><circle r="5" cx="1292.44" cy="-49.31" fill="#8b9ad9"></circle><circle r="5" cx="1279.54" cy="251.16" fill="#8b9ad9"></circle><circle r="5" cx="1298.5" cy="410.2" fill="#8b9ad9"></circle><circle r="5" cx="1279.56" cy="648.46" fill="#8b9ad9"></circle><circle r="5" cx="1429.75" cy="-45.2" fill="#8b9ad9"></circle><circle r="5" cx="1446.88" cy="107.35" fill="#8b9ad9"></circle><circle r="5" cx="1424.63" cy="252.88" fill="#8b9ad9"></circle><circle r="5" cx="1392.43" cy="343.96" fill="#8b9ad9"></circle><circle r="5" cx="1420.17" cy="528.06" fill="#8b9ad9"></circle><circle r="5" cx="1590.05" cy="-98.98" fill="#8b9ad9"></circle><circle r="5" cx="1545.74" cy="72.75" fill="#8b9ad9"></circle><circle r="5" cx="1542" cy="193.69" fill="#8b9ad9"></circle><circle r="5" cx="1544.97" cy="354.76" fill="#8b9ad9"></circle><circle r="5" cx="1543.47" cy="556.12" fill="#8b9ad9"></circle><circle r="5" cx="1560.52" cy="649.81" fill="#8b9ad9"></circle></g><defs><mask id="SvgjsMask1002"><rect width="1440" height="560" fill="#ffffff"></rect></mask><radialGradient id="SvgjsRadialGradient1003"><stop stop-color="#ffffff" offset="0.1"></stop><stop stop-color="#1735b3" offset="0.2"></stop><stop stop-color="rgba(23, 53, 179, 0)" offset="1"></stop></radialGradient></defs></svg>