<svg xmlns="http://www.w3.org/2000/svg" version="1.1" xmlns:xlink="http://www.w3.org/1999/xlink" xmlns:svgjs="http://svgjs.dev/svgjs" width="1440" height="560" preserveAspectRatio="none" viewBox="0 0 1440 560"><g mask="url(&quot;#SvgjsMask1049&quot;)" fill="none"><g transform="translate(0, 0)" stroke-linecap="round"><path d="M268.5 183.66 L268.5 376.35" stroke-width="32.25" stroke="rgba(217, 134, 148, 1)"></path><path d="M311.5 134.26 L311.5 425.74" stroke-width="32.25" stroke="rgba(217, 134, 148, 1)"></path><path d="M354.5 251.71 L354.5 308.29" stroke-width="32.25" stroke="rgba(217, 134, 148, 1)"></path><path d="M397.5 191.25 L397.5 368.75" stroke-width="32.25" stroke="rgba(217, 134, 148, 1)"></path><path d="M440.5 247 L440.5 313" stroke-width="32.25" stroke="rgba(217, 134, 148, 1)"></path><path d="M483.5 160.74 L483.5 399.26" stroke-width="32.25" stroke="#3a7cc3"></path><path d="M526.5 204.74 L526.5 355.26" stroke-width="32.25" stroke="#3a7cc3"></path><path d="M569.5 151.21 L569.5 408.79" stroke-width="32.25" stroke="#3a7cc3"></path><path d="M612.5 208.42 L612.5 351.58" stroke-width="32.25" stroke="#3a7cc3"></path><path d="M655.5 144.95 L655.5 415.05" stroke-width="32.25" stroke="#3a7cc3"></path><path d="M698.5 195.17 L698.5 364.83" stroke-width="32.25" stroke="#3a7cc3"></path><path d="M741.5 188.99 L741.5 371.01" stroke-width="32.25" stroke="#3a7cc3"></path><path d="M784.5 189.58 L784.5 370.42" stroke-width="32.25" stroke="rgba(217, 134, 148, 1)"></path><path d="M827.5 221.99 L827.5 338.01" stroke-width="32.25" stroke="rgba(217, 134, 148, 1)"></path><path d="M870.5 226.44 L870.5 333.56" stroke-width="32.25" stroke="#3a7cc3"></path><path d="M913.5 193.44 L913.5 366.56" stroke-width="32.25" stroke="rgba(217, 134, 148, 1)"></path><path d="M956.5 246.35 L956.5 313.64" stroke-width="32.25" stroke="rgba(217, 134, 148, 1)"></path><path d="M999.5 145.01 L999.5 414.99" stroke-width="32.25" stroke="#3a7cc3"></path><path d="M1042.5 247.99 L1042.5 312.01" stroke-width="32.25" stroke="rgba(217, 134, 148, 1)"></path><path d="M1085.5 229.68 L1085.5 330.32" stroke-width="32.25" stroke="#3a7cc3"></path><path d="M1128.5 234.41 L1128.5 325.6" stroke-width="32.25" stroke="rgba(217, 134, 148, 1)"></path><path d="M1171.5 158.78 L1171.5 401.22" stroke-width="32.25" stroke="rgba(217, 134, 148, 1)"></path></g></g><defs><mask id="SvgjsMask1049"><rect width="1440" height="560" fill="#ffffff"></rect></mask></defs></svg>